<?xml version="1.0" encoding="UTF-8" ?>
<!DOCTYPE svg PUBLIC "-//W3C//DTD SVG 1.1//EN" "http://www.w3.org/Graphics/SVG/1.1/DTD/svg11.dtd">
<svg width="316pt" height="316pt" viewBox="0 0 316 316" version="1.1" xmlns="http://www.w3.org/2000/svg">
<g id="#000000ff">
<path fill="#000000" opacity="1.00" d=" M 0.00 0.00 L 32.65 0.00 C 38.43 0.79 44.28 0.74 50.07 1.39 C 99.73 5.82 148.04 23.54 189.01 51.91 C 213.10 68.70 234.33 89.36 252.90 112.05 C 260.96 91.25 266.30 69.37 268.38 47.15 C 251.35 48.80 234.51 52.30 218.20 57.46 C 206.84 48.08 194.85 39.45 182.29 31.75 C 179.09 29.76 175.73 28.04 172.67 25.82 C 205.79 10.87 241.75 2.21 278.06 0.52 C 279.53 0.40 281.00 0.22 282.47 0.00 L 316.00 0.00 L 316.00 22.09 C 315.28 26.04 315.21 30.06 315.20 34.06 C 313.86 72.01 305.07 109.71 289.29 144.27 C 270.08 186.74 240.21 224.09 203.82 253.12 C 224.51 261.20 246.32 266.30 268.41 268.57 C 266.84 251.55 263.29 234.74 258.23 218.42 C 270.09 204.22 280.58 188.91 289.74 172.84 C 306.09 208.94 314.82 248.44 315.35 288.07 C 315.67 297.20 315.43 306.35 315.49 315.49 C 300.66 315.40 285.80 315.91 271.00 314.74 C 230.21 311.86 190.06 300.26 154.06 280.86 C 118.66 261.82 87.38 235.30 62.44 203.79 C 54.45 224.57 49.17 246.39 47.01 268.56 C 63.99 266.85 80.79 263.40 97.07 258.27 C 111.30 270.16 126.62 280.75 142.78 289.84 C 107.23 306.29 68.08 314.58 28.98 315.48 C 19.32 315.53 9.66 315.48 0.00 315.50 L 0.00 286.58 C 1.04 243.93 11.17 201.46 30.23 163.25 C 49.52 124.12 77.76 89.49 112.04 62.52 C 91.19 54.54 69.30 49.30 47.08 47.09 C 48.65 64.16 52.16 81.06 57.42 97.37 C 45.31 111.53 35.00 127.12 25.65 143.20 C 9.51 107.46 0.99 68.45 0.00 29.28 L 0.00 0.00 M 86.07 157.86 C 104.77 186.26 129.23 210.87 157.72 229.45 C 186.23 210.84 210.71 186.22 229.42 157.80 C 210.90 129.28 186.28 104.78 157.85 86.14 C 129.32 104.76 104.75 129.38 86.07 157.86 Z" />
</g>
</svg>
